<svg xmlns="http://www.w3.org/2000/svg" xmlns:xlink="http://www.w3.org/1999/xlink" version="1.1" class="marks" width="859" height="613" viewBox="0 0 859 613"><rect width="859" height="613" fill="white"/><g fill="none" stroke-miterlimit="10" transform="translate(5,6)"><g class="mark-group role-frame root" role="graphics-object" aria-roledescription="group mark container"><g transform="translate(0,0)"><path class="background" aria-hidden="true" d="M0.5,0.5h700v600h-700Z" stroke="#ddd"/><g><g class="mark-shape role-mark layer_0_marks" role="graphics-object" aria-roledescription="shape mark container"><path aria-label="properties.RentPerRoom: 818.934074074" role="graphics-symbol" aria-roledescription="geoshape" transform="translate(0,0)" d="M523.9772948541067,103.96085681585828L518.2782263358822,125.33858685364248L494.84449500593473,187.4125239853165L488.68244049470377,202.18556730926502L443.57913091842784,179.4986255429685L410.3363381911622,190.9417052222998L409.1732662298964,201.03379560622852L406.4654720163235,201.5381976995268L406.46214408960805,201.5095722619444L405.6161559023021,201.64503568853252L405.24575405637006,202.30228438822087L404.74750988518645,202.7701530456543L407.13555153790367,210.02678578486666L407.8029006017023,212.77860435505863L407.14534641676437,214.81136948330095L399.39239339582855,213.35617050970905L396.6247279230083,211.8799205942778L394.93731462695723,215.1447718210402L396.77242784042755,216.3524737014668L393.6677940524969,222.272516529134L395.2963954116276,223.20733253884828L394.6427582972465,224.8365913325688L392.8903765639552,224.0816356561263L389.8412497711324,222.63973064738093L390.97066381486366,220.73779315670254L388.7052332307503,219.4961225555744L386.81765604206885,218.11150693759555L385.81393235705764,219.94924485252704L383.06383571674087,218.3246090009925L378.9623492456667,215.76347907906165L375.06804464236484,213.5765548928175L373.8986801356514,212.98885235300986L374.72975608204433,211.432123177452L371.92839868879673,209.70798414963065L370.71578815682005,211.06836758262943L366.10584201203164,206.7432863599388L367.1009372848348,205.73858244047733L365.98466904614907,204.6728654227336L365.9836321601106,204.08876207936555L360.9112303179936,198.86101141065592L330.7704026942156,199.59747397882165L330.82424650558096,204.64527859113878L328.98605688546377,207.76087228790857L328.0507005969848,209.34331365884282L327.66402180817386,210.16330017411383L331.2975753222199,211.89728832565015L330.1859375711938,220.92118310497608L326.6129540042966,228.6150178112439L321.4354778417837,238.32959568256047L315.14405133279797,235.18790783913573L312.2181192681601,235.8436742182821L310.0926023441789,235.3475729241036L306.16679538667086,228.85030834324425L304.0351854170658,230.28920408070553L302.86618192760943,232.77412793267285L299.51325670685037,240.05879838601686L301.9410620742201,241.5639815632603L301.32474652215024,242.6280002570711L304.0747748992362,244.41373460827162L302.33047119055846,247.02577215171186L301.4294597740227,248.3724192546797L298.34494609820104,248.42386784445262L297.6422054274735,249.54447742010234L299.89972185663646,250.93593971128576L302.88725871177303,252.7387112515862L302.3113325505037,253.57710526144365L301.58928284493595,254.74008281878196L297.3151099387469,252.34508220828138L294.72671972881653,253.64054070948623L292.37435131610255,254.1137946957606L291.94594045159465,254.7107533312519L297.1792305249037,257.8859843931277L297.1482083783194,260.0956322206184L297.75392390590423,268.6428398230346L291.87890528177377,269.16721787833376L291.9044207497136,275.0082861924311L290.15362622278917,274.3540516142384L290.0402167498323,271.30854526284384L279.1225314370822,267.39393928670324L278.32443269508076,269.481593725679L277.47623943174403,269.12679511564784L276.4101618932036,268.0453294069739L273.87003356548666,267.708312749397L271.44187851488823,267.42401610763045L271.0108861849294,268.2191795982653L269.4319805251798,267.6649796257843L268.91194088876364,267.5054420043016L264.4425423488501,264.20302118349355L264.2226836108748,260.95276850106893L256.7465602617667,251.72998983657453L251.89218031940254,251.6985441535362L251.84629352750198,249.0007086393307L249.48669451160822,248.98195589898387L249.53441921777267,246.58461571112275L251.835441889074,246.57567258237395L251.83639401188702,241.71276303357445L248.759931808665,241.79206540202722L248.76489977114397,232.1387268360122L246.83057895184902,230.88347961107502L248.1159766397468,228.9930035189609L248.73924527016788,228.8831308823428L252.38948690521647,223.20079959160648L252.03859982166614,218.72503152117133L250.72243469971727,217.91251853719587L245.60402873176645,218.75167084112763L240.17018450252363,215.53129557648208L236.66267339996557,213.14282868301962L227.44834153963893,212.8827055802103L225.54027612126083,211.55152141692815L222.8490675398425,214.85097768250853L209.74658752544929,205.97411670838483L212.1614464193044,202.73369255644502L193.3906900649672,197.43697581830202L193.7103667740521,196.7124631476472L178.58420018241304,183.40294486877974L185.18790434105176,175.14012668293435L197.79149221087573,186.0856004920788L205.5478792947033,178.63730835320894L214.16302319194074,177.90906766691478L218.4611040136806,174.49628594814567L222.70700060843956,169.6110949544818L225.4462395266164,172.5412776931189L230.097910007069,167.01160551502835L235.8091272203892,160.26520054257708L241.24301792972983,155.0541354699526L245.48250452065986,151.42250833340222L247.09648064532666,153.3975025076652L250.68418403938995,156.51921621325891L253.99996265173831,153.78657997853588L251.00619879235455,150.0477503364673L257.3327836771714,143.48801232071128L256.01040977343655,142.36952757812105L259.0974120449682,138.72864909865893L258.40834769212233,137.2276107763755L258.3421056999505,137.07841826003278L257.97443544535054,136.28344326792285L258.4832411243624,136.05281246238155L258.6005537331512,135.98936860554386L258.696815709387,135.90944962960202L258.7865159389621,135.66432688967325L258.95181027457147,134.63573250890477L259.70223477089894,133.91371762461495L260.7623072697679,131.94880882534198L261.20155116476235,132.18822959269164L263.6642278099753,134.45603930501966L263.8840757909129,134.70687895722222L266.6170480761648,137.82484168797964L267.0604939287514,138.3059009220451L268.95587156989495,140.1380363952485L269.6452528964801,140.55933447362622L269.73898737312265,140.45919064007467L271.4064498273583,138.67165613960242L270.30820460976975,137.6536927371635L272.25911501017254,135.56233473372413L272.71533435643505,135.9863928174018L274.7828575735475,133.7770134046441L276.2055039533443,132.25841469469015L276.8674801280722,131.55185811885167L275.9172470249832,130.29332006821642L277.2827739971908,128.63444922922645L279.58473268307716,125.8302469739574L279.92450196483696,125.41715696360916L282.3348294363386,122.48540640255669L281.7135712731251,121.85689211328281L280.43886684718746,120.56722310214536L277.99780562271917,118.09115443890914L275.86791049226304,115.93095904676011L275.54858960893034,115.60738114634296L277.77368849149934,112.57998400187353L277.41967617200135,112.25076811225154L279.57690783211,109.6978931731428L280.3158971900484,108.82327097089728L282.3517911214876,106.37740740837762L282.99421659469226,105.59896281774854L278.59400315902167,101.07999067864148L274.38757834742864,96.69833452318562L270.1779847217913,100.38599450152833L270.44795319472905,101.60443170851795L269.9662258856624,102.72643892030464L264.94342135742045,107.54260165203596L261.53647514079785,107.85111785167828L254.6434315599181,100.50842745706905L249.47538926613925,94.94113201607252L245.8370409658164,97.95390117389616L236.75188605250878,86.92079803888919L237.84522079193994,86.01221603440354L239.06210928827204,85.76803663361352L240.26385457769356,86.38756737631047L242.91863534726872,89.20779967930866L255.43887466297747,76.72681848489447L244.7140596107929,65.80921023193514L241.56386240720167,62.825713578029536L241.484887787381,62.75398186320672L241.41106485151977,62.67680873291101L241.34278432427527,62.59476137335878L241.28033526611398,62.50802617816953L241.22420528643852,62.41726433101576L241.17439757616376,62.32266702328343L241.1313997463585,62.22489544079872L241.0952165821509,62.12423637206666L241.06624199994258,62.02144819998648L241.04438390141877,61.91672371746972L241.02994091316214,61.8108229067293L241.02563001640374,61.775227310019545L241.02207984796405,61.73952332010958L241.01948258395714,61.70380333677167L241.01764604890923,61.667974959651474L241.01657183733914,61.63213378714863L241.0164505299981,61.59627662086859L241.01709154641867,61.56040665868204L241.01863391783263,61.53857837722171L241.02046375464852,61.51684089493938L241.0226763479368,61.49519261356909L241.02507792799588,61.47344553505536L241.0278622642436,61.451787656813394L241.0310293566945,61.43021897919243L241.0343870303841,61.40864710218739L241.0522214616576,61.3177913276013L241.07541607779422,61.22827995469561L241.1040693594914,61.14030258060666L241.13790021954628,61.05415079719387L241.17691662960715,60.970302598783746L241.22083431422652,60.88885837956332L241.26966124448518,60.81029613222927L241.3230210411566,60.734909049933776L241.38091529945086,60.662792732880916L241.5738016834075,60.46056084090378L243.741163097533,58.192691418051254L244.69954771906487,57.18985695607262L246.53094720775698,55.214307335729245L248.01133986303466,53.61863603483653L251.61265895239194,50.20206423592754L253.13037440580956,48.84263432008447L253.30830524906924,48.136796102451626L254.89104307191155,46.50287888152525L255.27249954003491,44.286542845889926L255.42007799149724,44.219234519288875L255.56282156888483,44.14206199342152L255.70006959053717,44.05541884194827L255.8310644878802,43.95960463176016L255.95533775548392,43.85510534181958L256.0722302988288,43.74241014412837L256.1812736092761,43.622005016950425L256.2402461440506,43.67169944639318L258.48932673251693,41.40981637814548L261.5077612067689,38.30021467775805L263.0343232369414,41.93844835506752L266.87235213311214,42.42310121667106L273.2917458276279,41.76679285801947L274.48265038272075,39.4475980392308L280.1983563615722,34.43042247230187L277.06002810926293,28.321482106752228L276.77055232015846,28.00127585529117L276.3941693122324,28.067146478628274L274.7721614706825,29.071128562034573L274.606808174256,28.877948355162516L274.0525373317723,28.225746127951425L273.62354589849565,27.483373067108914L271.8524330261207,25.440595482708886L269.2912291291359,22.67305299808504L269.39076066361304,22.559212560590822L271.30324819782254,20.506913443270605L268.81319122496643,17.48492626764346L270.58206089956366,15.669021934270859L267.8710029020367,12.674905840540305L270.90183706014795,10.0008909329772L273.0089686499341,12.384672597574536L275.8534539888642,15.602465724630747L276.27858043242304,15.13068111310713L276.5457124991226,14.83424975676462L281.1356676323776,9.740640448057093L282.78201936691767,7.913791994156782L283.10232316853944,7.5583266185713L286.5156661411529,3.6069117570878007L286.76370424101333,3.578095324279275L289.7684803471202,3.2268605854478665L290.2521276430198,3.1382614371250384L290.68168474292906,2.966790337814018L298.14405690395506,5.820766091346741e-11L300.50219598514377,0.5829584362218156L308.2526656981281,8.965526760788634L299.9134561779065,15.262240616080817L299.5553593890145,15.529097603983246L299.3063014675063,15.714665743988007L299.1971692174484,15.796051888319198L301.9860671925853,19.51197164162295L304.88175908600533,23.381595693703275L305.33368210156186,23.98561956960475L305.795516528844,24.060067582468037L312.6425307972022,30.150927525828592L314.15109436348575,31.337329841044266L314.16834379007923,31.371660365664866L297.8964431628192,38.16477598925121L297.67612479377567,38.49062302825041L300.7403163146955,41.36161305609858L302.14382196378574,43.39878904429497L302.6842329303108,44.41968337877188L303.09296218962845,45.82920070743421L303.6167392086645,48.53330237936461L304.4023049543466,50.80299678223673L304.5243524459729,50.76510225533275L305.24690969432413,53.345762480283156L306.94192033789295,56.66478179185651L307.8345446030871,59.092357792309485L308.8345292454833,61.165473102242686L309.355486969449,61.90543524065288L311.7730824514583,63.94268560910132L312.34525719800877,64.37398039811524L312.5329179123437,64.48235184326768L314.7098740270376,65.10016013000859L314.77922982518794,65.11535676306812L314.8492067775878,65.12776997004403L314.9195221783739,65.13759570848197L314.99017444738274,65.14473838009872L315.0610667131841,65.14910397457425L315.1321052683197,65.15078967687441L315.2030979525298,65.14970306266332L315.273955803219,65.14622810919536L315.3446772398529,65.1402692181291L315.4151701365263,65.13201917224796L315.485336040736,65.12128836166812L315.555082826133,65.1082695692312L315.62431362264033,65.09286878275452L315.69302843032347,65.07508600328583L322.04254345285153,66.0504143552389L323.7565437776793,59.37506099534221L319.10304629384336,57.48970931355143L319.1261833773606,57.355640408582985L319.14788477664115,57.22121287242044L319.16805836094863,57.08661948761437L319.18660725685913,56.95176624204032L319.20362833606487,56.81674714747351L319.2191215974526,56.68156220385572L319.2329901671983,56.54611739877146L319.2410753393924,56.46441455261083L319.2482060177135,56.3826319584623L319.2544790738684,56.30086362885777L319.2597960542553,56.218919951992575L319.26425383100286,56.13689494068967L319.26775869302946,56.054885779856704L319.27040593213314,55.972890883043874L319.27602934685274,55.892185187956784L319.28069826605497,55.81139974447433L319.2846032722591,55.73053138126852L319.2876506547691,55.64967728161719L319.28984041323565,55.56883744709194L319.2910756743222,55.48791786440415L319.2915486021375,55.40701096021803L319.2926759234324,55.32532814878505L319.2933252054936,55.24355765787186L319.29359490185016,55.16188910003984L319.293481850189,55.08013127569575L319.2928923394429,54.998381371144205L319.29192324286123,54.91673339839326L319.2905713977307,54.83499616070185L319.26073799251753,52.616213456494734L319.2605953195307,52.52690132858697L319.25969030932174,52.437601876445115L319.25792766916857,52.34831668715924L319.25530739829264,52.2590457595652L319.25192478908866,52.16978750820272L319.2476845487545,52.08054351928877L319.2426835501392,51.99140780622838L319.2103620953567,51.368464614322875L319.20793239749764,51.279190364293754L319.2037858549593,51.189849053218495L319.1980225029547,51.10072589357151L319.19063917810126,51.011629686167L319.18154374932055,50.92275321757188L319.1708315087817,50.83409490057966L319.1584055816638,50.74556072271662L318.9829284085354,49.293528716196306L318.966793173131,49.193963395257015L318.9500877572427,49.094503175176214L318.93300116495084,48.99504928459646L318.91543968356564,48.89569890871644L318.89740331390203,48.79645204753615L318.87889205504325,48.69730870157946L318.85990590709844,48.59826887102099L318.84054174368066,48.49942656996427L318.82070110954373,48.40059218404349L318.8005745901901,48.30176254129037L318.78016534755443,48.203128841356374L318.759279633603,48.10450305690756L318.7381096148092,48.00597761647077L318.71655999864015,47.90755410504062L318.6945386542211,47.80942531040637L318.6721377113281,47.71139844536083L318.64954775646765,47.61347033793572L318.6266719147752,47.515546973911114L318.603511767702,47.41772395343287L318.5800673151243,47.320001276559196L318.55633697529265,47.22228334378451L318.58519825182157,47.088499273289926L317.3715721850458,43.5319670032477L316.8657642176404,42.048696367884986L317.6431957607201,42.23312788340263L318.16760886862176,42.35760646732524L322.8516172478703,43.469156607287005L329.3259778937063,45.54883709317073L334.8247196516895,47.57202319719363L341.92907852378266,50.13890313403681L348.7156166552086,52.592269767133985L349.42324128595646,49.67149017180782L352.86025828277343,38.38832311978331L353.12317412856646,39.67943376285257L354.3754221831259,43.38880706031341L354.5697324950961,43.77354400668992L354.8475637871452,44.10171881999122L355.9237730474779,44.90894213493448L356.52758285701566,45.39255625294754L357.61511914387665,46.28011076746043L359.1173907082484,47.711982317385264L361.0129748488325,49.30802842695266L364.7886795360755,52.72653664438985L369.0588019312927,56.58256983727915L369.37423960374144,56.93211522162892L370.9091641738705,58.67786372214323L370.6077366799436,63.65885334776249L369.9756901358487,68.28793138894252L368.65104644810344,73.92195747775258L372.89137252532964,77.61734245641856L373.9260170862035,75.96604299917817L376.89483185261633,79.89476851432119L379.0853356241205,83.9080716096214L384.00082254641165,85.60245194990421L387.99137441087805,87.09987760474905L393.39444202069717,68.61830235633533L397.30156859922135,69.98085783788702Z" fill="rgb(153, 215, 184)" stroke="white"/><path aria-label="properties.RentPerRoom: 716.131489669" role="graphics-symbol" aria-roledescription="geoshape" transform="translate(0,0)" d="M291.9044207497136,275.0082861924311L288.7212148983672,279.1583789944416L290.6378895212911,280.16924695146736L288.38740316626354,284.13454324915074L286.1005184666428,283.0342855481431L285.4018273192487,284.2226443096297L288.6392701966979,285.6473145237542L286.74183873436414,289.8141085707466L285.18073207955604,289.156738203892L284.2641520658508,290.87923270551255L278.60555893107085,301.9759213438374L279.15674633035087,301.9132755729952L283.89345671230694,301.37339769583195L285.9224829022278,301.1206115207751L288.1232101570931,300.7305722896708L287.40622293410706,303.49663444404723L285.296653569465,304.09706301632104L285.5774598521166,305.7346086819889L285.59436647355324,305.7543989707483L285.7262349146986,306.0073106625932L285.80125599411986,306.27942844713107L285.8327156519954,306.5675672365469L285.79640491753526,306.8482353591244L285.7123105556384,307.12014313187683L285.5869907033484,307.37658574071247L282.9450068718652,311.85494771652156L282.55377925373614,312.5076278252527L282.14047069968365,313.1501623252989L281.69917592589627,313.7711800247198L281.2106230504287,314.3576215226203L280.6843052773984,314.9074167284998L280.12214345847315,315.4214895729092L279.5279316616361,315.898821009323L278.9054321848671,316.33648085867753L278.2654556271009,316.74862595647573L277.5114516646863,317.1846618276322L276.5898593049642,317.6837173765525L262.875106706073,321.24375350849004L266.03700989455683,330.8872285721591L247.99539022562385,330.0799113960238L246.9043848461224,330.04917584726354L245.81292883003334,330.0542925890768L244.72226058111846,330.0952408526791L243.6334280099618,330.1720030477154L242.54776157940069,330.2843656660989L241.46631078881182,330.43240664346376L240.39031084817543,330.61591403884813L239.22366745935142,330.82560459687375L230.60401635552262,332.45002972660586L229.12870049083722,332.75123489368707L227.6635956819664,333.0990107328398L226.21022300390177,333.49314036307624L224.77000348455476,333.9331218180596L223.3442644887691,334.41855026537087L221.93461910192855,334.94901604403276L220.54238986587006,335.5238276188029L218.75103222096368,336.3130498720566L196.31479671469424,345.97138905338943L196.02157637039636,346.0978123942041L195.72924535952188,346.22613242291845L195.43780528585194,346.3564446878736L195.14716090786533,346.4887507915846L194.85750271513098,346.62304752034834L194.56863702138799,346.7591469811159L194.28075911802443,346.8973326119594L193.9839837334439,347.0446527166059L193.68819775789598,347.1941545427544L193.3934916329672,347.345549827849L193.09987016458035,347.49912522238446L192.8072349097274,347.6546912265476L192.5156811136403,347.8122462310712L192.22530562274915,347.97188417823054L190.95638439602044,348.6698823553743L185.05917512614542,351.91360011609504L183.69323593739682,352.6085642623366L182.28569147980306,353.21410443400964L180.8422140789844,353.7276404246222L179.36886496370425,354.14706325595034L177.8717117082124,354.47064605460037L176.35682824502146,354.6970440406003L174.83067584790115,354.82528808771167L174.14438230971427,354.86077920522075L171.6249147111812,354.9014486220549L169.10883675650257,354.7639170338516L166.60863727572723,354.4488332121982L164.1369148545782,353.957703886379L161.70571280127479,353.293000582431L159.32737477583578,352.4580495955888L157.01349556642526,351.45695419749245L152.70122300363437,349.40805758628994L152.33037283801968,349.22901354701025L151.96173269790597,349.04544011037797L151.59530096797243,348.85724171670154L151.2313665867623,348.6646046192036L150.8697374546755,348.4674364841194L150.51050880836556,348.26573568955064L150.1538743445126,348.0596901004319L149.7867442953866,347.84139734855853L149.42248769458092,347.61837275122525L149.06110614421777,347.39071184647037L148.7025996397133,347.15841462422395L148.3471602705613,346.92157339758705L147.9946911800871,346.6800942173577L147.6453860678448,346.4341649465496L138.6718616095095,340.02864360570675L137.5396720065546,339.25520900054835L136.37674098959542,338.52903535729274L135.18499617236375,337.851428451424L133.9666477141218,337.22349808592116L132.72352482877614,336.6463605090976L131.45783290494,336.1208388224477L130.17168533792574,335.6479488222394L129.47836344093957,335.4092036341317L125.86099754148017,334.16309028706746L124.64462974096386,333.78909831593046L123.40611524895212,333.4973015252035L122.15090773971315,333.28904124186374L120.8847402071915,333.1652716464014L119.61314711197338,333.1264723059139L118.3417533316242,333.1728344245348L117.07627414903254,333.30426084354986L113.12792882225767,333.8706035306677L112.5895138552878,329.4707244106685L111.91701880830806,323.9757189134252L111.6876983563925,323.5418541212566L110.9808209386174,322.20349419506965L110.56244957222953,318.76897516363533L110.50504661972082,318.3151690213708L110.34911862621084,317.032040759339L110.12461905161763,315.1811648044968L109.97224306327553,314.2210413358989L109.48175719704886,311.120334650157L108.97679658435663,306.86481449299026L108.80716590353404,305.4365098453709L108.78284098376025,304.78092436824227L108.79009924350248,304.19008545554243L108.84230445878347,303.6147307724459L108.9201135609328,303.13930446311133L109.03240513402125,302.6746658188058L109.1006496946793,302.47889311326435L109.18878828832385,302.2256218599505L109.40002816241758,301.8090037428192L109.64959468834422,301.40511541598244L109.95405199784,301.0356598792714L110.30405110257561,300.7112151457113L110.69994886323548,300.4472601825255L111.13407675959752,300.25233713758644L111.6216295903505,300.12351133988705L111.88590387647855,299.6256986267981L113.18281386681338,297.1602740199305L113.23423335535335,297.0625708110165L114.33324560495385,294.9121156706824L114.5064571777475,294.6128521724604L115.61755553450348,292.73174031823874L118.76790468986292,286.3913096230244L121.28155987178616,281.0725941059063L121.56121259334759,280.4800667008385L121.65936428053101,280.27192698570434L122.0800386847477,279.38048577151494L122.70352821611596,277.69631706137443L123.8824803393145,274.9599203533726L124.72820096859505,273.175420429965L125.23590394498751,272.34194983390626L125.35615807144495,272.1899263636442L126.63474864938325,270.3314428048325L128.21995390732627,267.9636994332541L128.4133151453134,267.73396144929575L129.35798362483183,266.41377402754733L130.53796935265564,264.7579840492108L130.5562937635841,264.77105581067735L132.7723078969575,261.6683912317385L132.8252633308948,261.70094974472886L133.10877214494394,261.81620205548825L133.2178599781546,261.5102727462072L133.33979779928632,261.2091916197678L133.4744063894468,260.9136308777379L133.621408047984,260.6240732104052L133.78052668472083,260.34109687490854L133.95148298335698,260.0650889995741L134.13400084955356,259.79662784340326L136.31846329439577,256.73052493692376L137.55118892773316,254.962079507648L138.4280556486483,253.56837045529392L138.45700224825123,253.5841303623747L138.98541124056646,252.76147774007404L139.1007578795252,252.58353397325845L139.49623624028027,251.96961701661348L140.21557742892037,250.8005438829423L140.2622767812427,250.73321872361703L140.31129134391813,250.66757498815423L140.36252746821265,250.60370986076305L140.41588828536624,250.54152938950574L140.4713786263601,250.48132027650718L140.52880636222835,250.42299018637277L140.58826997325377,250.36672863841522L140.655029376132,250.31932919705287L140.72492080555094,250.27684753079666L140.797661703029,250.23947962000966L140.87296951009193,250.20742144569522L140.95027589044184,250.18087383452803L141.02929506489454,250.15984163351823L141.1096508249393,250.1446180047933L141.19478215646814,250.1357182013453L141.28028942742094,250.13216529233614L141.36588524854596,250.13386855623685L141.45119019022968,250.140930020425L141.53591686364962,250.1532589639537L141.61968261935544,250.17076627950883L141.70229854754143,250.19355076446664L141.78328352023527,250.22133379190927L141.86235175871116,250.25412020628573L143.1957291703584,247.57476483273786L141.09509217097366,246.237548572768L141.1270020453594,246.24819206364919L141.15945610651397,246.25720122311031L141.19226544579578,246.26467484835302L141.2253315828275,246.27042342018103L141.25875299853942,246.2746364577324L141.2922423033524,246.27722324006027L141.32589314748475,246.27808658475988L141.35488297370466,246.27377126464853L141.3834595615408,246.2675510625122L141.41162452160643,246.2595215466572L141.4391889442195,246.24978151288815L141.46615121961077,246.2382353945286L141.49232243841834,246.22498198936228L141.51751369154954,246.2101200937759L141.54182184836827,246.1937436601729L141.5649595201976,246.17576196684968L141.5744535710037,246.1680490273866L141.58375227296347,246.1600526163238L141.59285562539299,246.1517727340106L141.60166997896886,246.14330656273523L141.61028898336372,246.1345569199184L141.6187142485287,246.12561937363353L141.62684890454693,246.11639997072052L141.65877411497058,246.07704730168916L141.68924950354995,246.03647648502374L141.7180845509065,245.99469074979424L141.74518721634377,245.95188284601318L141.77074801964045,245.90804954216583L141.79457644055947,245.8631940690102L141.81658043932111,245.81750917382305L141.99770932104002,245.29641103587346L142.309045694441,244.1613939353847L142.43307776642177,243.83140074735275L142.84922906541033,243.9520603400888L143.37410755128803,243.12821551656816L143.57032832979166,242.82978736056248L144.1296645990733,242.0262928996235L144.68673819059768,241.26375104300678L145.19676271347998,240.5873728900333L145.78377674729563,239.8258523310651L146.1223864260246,239.34223143738927L146.79322432779736,238.4429702045163L147.14779030479986,237.94483461650088L147.5982526756925,237.30732014670502L148.5144751659027,235.98423295433167L148.68732060159527,235.72902612102916L149.12763213364815,235.0656802711892L149.33955153452553,234.73151783406502L149.55565017788467,234.39087952504633L149.66903540932253,234.21487753972178L150.15520375627966,233.4281991321477L150.6223197723666,232.63610702950973L150.74368573013635,232.4246943530161L150.85573430336808,232.2315072445199L151.8195870902564,230.4706332673668L152.4946195609009,229.16261609306093L152.74977405447135,228.66807180945762L153.49216162502125,227.19467449077638L153.4392525494768,227.0460558339255L153.33353118775995,226.7489123767591L153.21011034383264,226.40226211678237L153.81170896247932,225.21478729275987L154.76043954231136,223.32978018460562L155.92568579220097,221.01473336393246L157.09610578364664,218.68945878493832L158.09077906350285,216.71322175842943L159.08509093900648,214.73775077424943L160.08153000282618,212.75803252652986L161.07797588961694,210.77830927446485L162.07323352089588,208.8011824534624L163.06908979864238,206.8139069339959L164.23117168140743,204.51636097481241L164.5480693924983,203.88404695299687L164.95715299699805,203.07809044211172L165.02026014951844,202.94901257596212L165.08288617684593,202.81965602131095L165.14522482512984,202.6902087056078L165.20708395362453,202.5605782751809L165.26855722347682,202.4306675439002L165.32964784646902,202.30066766228992L165.39035261010577,202.1703874785453L165.4766036802248,201.98384380643256L165.5619909768866,201.79693229083205L165.64651450011297,201.60965293075424L165.73026951589418,201.42200411425438L165.8131607562609,201.23398745257873L165.89528348831664,201.04560133325867L165.97654244396836,200.85684736719122L168.2067636413558,195.66387410025345L169.07307548020617,193.64902279042872L171.67428670783556,194.2178644106607L175.11878356362286,191.7228243643185L193.3906900649672,197.43697581830202L212.1614464193044,202.73369255644502L209.74658752544929,205.97411670838483L222.8490675398425,214.85097768250853L225.54027612126083,211.55152141692815L227.44834153963893,212.8827055802103L236.66267339996557,213.14282868301962L240.17018450252363,215.53129557648208L245.60402873176645,218.75167084112763L250.72243469971727,217.91251853719587L252.03859982166614,218.72503152117133L252.38948690521647,223.20079959160648L248.73924527016788,228.8831308823428L248.1159766397468,228.9930035189609L246.83057895184902,230.88347961107502L248.76489977114397,232.1387268360122L248.759931808665,241.79206540202722L251.83639401188702,241.71276303357445L251.835441889074,246.57567258237395L249.53441921777267,246.58461571112275L249.48669451160822,248.98195589898387L251.84629352750198,249.0007086393307L251.89218031940254,251.6985441535362L256.7465602617667,251.72998983657453L264.2226836108748,260.95276850106893L264.4425423488501,264.20302118349355L268.91194088876364,267.5054420043016L269.4319805251798,267.6649796257843L271.0108861849294,268.2191795982653L271.44187851488823,267.42401610763045L273.87003356548666,267.708312749397L276.4101618932036,268.0453294069739L277.47623943174403,269.12679511564784L278.32443269508076,269.481593725679L279.1225314370822,267.39393928670324L290.0402167498323,271.30854526284384L290.15362622278917,274.3540516142384Z" fill="rgb(231, 246, 185)" stroke="white"/><path aria-label="properties.RentPerRoom: 1103.58428479" role="graphics-symbol" aria-roledescription="geoshape" transform="translate(0,0)" d="M429.31712944783794,578.0492960772826L429.63402978653903,574.3600780375418L430.7721139039277,561.546520262491L431.8495235110822,549.7837094014976L433.44244129544677,535.6100633894093L434.4724797908493,526.3795331406291L433.5843908253519,520.7509700576775L431.9271281389956,516.2014333323459L428.7507700163769,511.4800275542075L426.45949933159864,509.574242943665L423.8652239023868,507.95245776703814L420.17571866350045,506.69661847577663L417.7118395084399,506.07799844100373L414.2261964558784,505.71615568036214L409.20332841043273,505.6921320949914L400.5566737872723,504.7818970878143L398.8860606047165,504.63432663091226L399.4972304725379,497.2176238662214L398.6165256744862,496.06355277530383L393.5635052455327,495.5423316846718L393.9145143500209,492.7291846491862L397.22556272337533,478.8710952627589L396.8307049351497,478.6645256457268L399.4220650645948,472.6446154922014L397.3843824787109,471.8594290589099L398.08619877827005,470.39155605703127L399.1071395133331,469.91889550426276L400.1695098067503,470.2358094517258L401.4795173984312,470.79030181939015L401.4909693692607,467.81742576730903L397.7102762210561,467.727894337615L397.7005886955012,463.45002891286276L398.8061336829851,458.9417717020842L399.1704776814222,451.62450398592046L400.8344776157901,451.6266624824493L401.61538457107963,443.90776197536616L402.89087494841806,442.39977853471646L403.7475357071671,441.1414311415865L404.2723535447949,439.91913685621694L405.17161816939915,437.59838688507443L405.6805834822444,435.466592026758L405.7952177420375,433.21992931864224L405.5514733517557,431.25056966167176L404.97938223056553,429.53126301575685L404.137402669272,427.96739544469165L414.0302258855445,420.7064039768302L411.937117915586,418.49540729419095L409.6721322461599,414.95190082030604L407.1169029715311,410.38181220763363L407.9864483043784,409.9120954205282L411.54766595025285,407.91422578535276L410.14208134829096,405.55155926547013L409.0955583738396,406.1506302380585L408.53788855813764,406.4692737177247L408.17455293622334,406.6776772495359L406.8944203529245,406.07702778140083L405.4841314289588,404.94573787919944L402.5924179350186,401.8663676654687L403.57414622968645,400.94074127828935L404.9895511880168,400.55260538571747L407.48869655949966,397.9642879575258L408.6773064246663,396.6698920404888L406.59578588523436,394.51559000334237L403.2523693294279,391.35950953897554L406.0194991505268,388.58963186468463L404.20526024746505,386.7382546022418L411.96530742919276,378.7822242398397L415.20953780968557,375.34367996186484L412.7898032797748,373.1911218558089L410.8497978326923,371.18911682243925L413.3144731539287,368.83666283322964L416.51223410284,371.7907987126382L417.4112254296997,373.1100904933992L419.09795344430313,374.539597483119L421.35976510671026,372.46282100566896L429.03925232857,364.90240363246994L436.84516004487523,372.4807774005458L448.69175975374674,377.3839641715167L447.78691188589437,381.28247806220315L452.2128393353705,389.3412613829132L454.44314995033346,390.63976929342607L451.0601789121065,396.4908177017933L454.50824987419765,398.4065713346354L456.55614662363223,394.78779506433057L458.3891287882725,391.5471629356616L457.1453856228982,390.799089554057L455.24342644927674,389.6567925219424L454.7476201435129,385.2652482764097L455.8083741444134,383.48876349336933L456.05188104780245,383.63567472447176L456.8481983616075,382.4090468812501L458.35287610623345,381.7536873216741L458.81533321068855,380.6167335958453L460.02509284160624,381.0202728799777L457.2979873223885,385.8601898555644L459.14643354260625,386.99181499233237L461.8348916733012,388.5322805119213L461.0788505232922,389.8396536736982L459.96561935652426,391.76328719279263L457.532714995119,396.0819303205353L455.7925902262723,399.173936700623L464.6618914870851,403.79072928690584L463.0682368606431,406.2437933596666L471.71269353237585,411.4424041773309L478.4993529615749,415.94310175528517L482.04326202847005,418.13003232638584L478.0278862949999,424.11121182044735L479.3682506125697,426.5776668523904L482.60580263641896,424.76582896511536L489.11431211143645,428.9059478244744L492.1923630685196,424.4509934724192L493.3203160923731,424.05326354829594L498.9190628200886,427.4422323499457L506.0110019990243,432.0902746376232L507.56033115422906,428.788509268139L512.0722033943312,431.02103497233475L511.48449154853733,433.9430910490337L509.0168812424017,438.4129449191969L510.61874834135233,439.7455092862947L508.334509152839,442.53351328737335L510.4732888619619,444.27615094621433L507.8305190663232,447.3861940470524L509.6055375750948,448.5955989276408L511.5041788889357,450.0220137521974L516.7122152546654,450.38182313781L520.4534334556301,446.13387137732934L517.4526709760976,443.65156392520294L519.9157894440868,440.9960020466824L521.5540431116533,439.27098539919825L526.9129802950556,443.9770496470737L532.8108318597297,436.9936306225136L537.3330654315068,440.7673690558295L527.9843044028967,451.755415010266L532.8855634611682,453.7387598719797L531.1112126242297,456.22408178902697L528.2283959199631,459.3659678476397L526.5598143019815,460.90964880090905L532.7909268918811,467.3783685367671L530.5918800166692,469.52654212730704L529.5212614709162,470.52055999892764L529.2682776435031,470.8972536622896L529.0822651058552,471.17452923650853L528.882149993522,471.5868644657312L528.7485558274348,472.1604666347266L528.7711942222377,472.4353001927957L528.8185379029455,473.01264456426725L529.0738529144801,474.3051837143721L529.8623545836163,477.06919663923327L529.9497943191745,477.40498848294374L530.3864458319367,479.0796538979048L530.7409613642303,480.15174446458695L530.151272080846,481.08727094111964L530.371167778052,482.0688610107172L530.8176316922836,485.6638029871974L531.1064011528288,487.9889934793464L531.299380725075,489.6033834038535L531.358211375642,490.0019346670597L531.3932296180574,490.34153463644907L531.9863355853668,494.87150654004654L532.0507335176808,495.37879794830224L532.5316284163637,499.1958297865349L529.6443881308733,497.04618016572203L526.8915311189921,495.25649258482736L523.1687765089446,493.03733590513L521.2236026170649,492.0208118656883L516.2370039189409,490.09661605226574L511.807888176445,489.49146322801244L509.58134179379704,489.5688724886277L505.77571763765445,490.12221334618516L503.37854273756966,490.71937535254983L500.9155217413936,491.66065815777984L498.7134698660302,493.07077043835307L496.56221879641816,494.7933753308607L493.4569599713286,498.6480559821357L492.4630165982744,500.49134895193856L491.95767302048625,502.8033574123983L491.38998723422264,507.4927251317422L491.4430041830128,510.8743407483562L491.9504560592686,513.4430256332271L492.27669116371544,514.8231614726246L492.16887131223484,519.8546234179521L491.33393122152484,524.213900497125L489.20755095298955,530.0971196874743L484.4855690811746,539.0611913138418L474.90496580635227,560.3935416158638L473.35877697364776,565.6277885070303L472.6162505150569,570.5029731912073L472.46084017521935,577.5783265155624L472.0095177221592,585.1370862015174L470.8411698106138,588.538258132292L469.80945955274365,590.4458424025797L468.07210868338734,592.9383011228638L465.67556104357936,595.416624380392L462.81283751946467,597.3304261990706L458.06906260942196,599.4642514486331L454.29818946670275,599.9933875640272L453.02795789804077,600.0000000000582L451.75943280365755,599.936081993801L450.4962360844729,599.8018606475089L449.24246721993404,599.5976506978623L448.00184956981684,599.3240596081014L446.7782079507306,598.9820752612432L445.5753672086212,598.572685487743L444.3969649347855,598.0970722154598L443.2465482320913,597.5567054217681L442.12776412862877,596.9533400090295L441.04397565112595,596.2888310486451L439.9984506748515,595.5650351441582L438.99456169026234,594.7843803746509L438.03520211048453,593.9491116019781L437.12346205234644,593.0618525925092L436.26205244092125,592.1253288747394L435.34470006528863,590.8424475768697L434.47404824708065,589.5271739808959L433.65145655137167,588.1811094332952L432.87790844491974,586.806148097734L432.15438430782524,585.403993132757L431.4818676744835,583.9765387400985L430.86124534445116,582.5255852023256L430.2932168590123,581.053126984858L429.77876428074524,579.5609628551756Z" fill="rgb(30, 56, 141)" stroke="white"/><path aria-label="properties.RentPerRoom: 698.735049335" role="graphics-symbol" aria-roledescription="geoshape" transform="translate(0,0)" d="M283.1107607930462,324.8692382288282L284.145538860168,331.20051229238743L292.1555872813333,330.42549603705993L292.27582593679836,331.30464250210207L292.7851490896792,335.9977067838772L292.8180981569749,336.2036081106053L293.09072841805755,338.74050532572437L290.2009256866877,339.18645137076965L290.9891800213154,348.97194811486406L291.07640314265154,349.68722491979133L304.13814820179687,349.37736197706545L303.9840272562287,347.37749228521716L310.2975372108922,346.846658135124L314.1057944069107,346.69318518892396L314.1455568291203,347.20768551545916L316.6562361572287,347.2269499224494L317.39603005008394,348.06345488724764L318.9838949154582,347.18819794332376L322.2488356284157,347.0121874710894L323.53548938733,348.6393908900791L323.01336974652804,350.6018636000226L322.6126191748335,350.403041749727L321.95142314185796,351.8994984976598L325.136252165139,353.26457647944335L327.65828010305995,352.5828374031116L329.0140468941099,352.8708187524462L329.01660370259196,352.8583512954647L329.0222066996357,352.8457376069273L329.0287000338867,352.8351162186591L329.03797277286503,352.8254999528872L329.04746441403404,352.8176004233537L329.058783032895,352.8107218541554L329.0719428372686,352.8057241976494L329.0852310371338,352.8027315120562L329.09961268884217,352.80249236157397L329.1129924522538,352.80504158948315L329.12631012480415,352.8095989555586L329.1388974290603,352.8160799964098L329.2524678349946,352.88587381492835L329.45281590012746,353.0183564707404L330.98935049408465,353.6320234918967L335.20826554497035,362.1791861000238L335.2041922606877,362.1805918389L333.06514634883933,362.86652987869456L335.7390244627022,368.9662760438514L338.2973347188381,374.2433826685883L339.2040040531574,376.1903342275182L339.53728958520514,377.6825143088354L339.61759042307676,379.4368419517996L339.41995118991326,384.89936680317624L342.62628035368834,384.93662162614055L343.4574844898598,383.92209340340924L345.6030949363558,383.79415006842464L345.62448559085897,383.79150126868626L346.6372335937849,382.09894026676193L346.77994753316307,381.86261212517275L347.4126630584142,379.9082756275893L347.55295620430115,377.5493288843427L347.1617347122592,377.5165417805547L347.2314884776206,370.8396164405276L347.0114807654463,370.23647182789864L349.83922988957784,369.48918128124205L350.1147192682838,358.38113758695545L350.5046862954914,356.3721660961746L352.3472166016363,354.3690058051725L354.356846915347,356.244325311447L356.82846226755646,353.4959562680451L357.5725107481703,352.6920567289926L358.47748647582193,352.4038961553597L359.3580700507082,352.47990523983026L364.542069786301,356.10541008476866L360.4210894221542,361.7713559328113L368.40664161130553,368.9715169905685L380.4068278024424,379.724601654103L384.5663390137852,375.37982195499353L385.12955507833976,376.5519783369964L388.083572196796,379.26996687665815L389.3361811246068,380.0055278062937L391.3687524760462,380.3661788570462L398.6069314342749,379.45473811007105L400.06959434295277,377.9196008351282L400.07442052447004,377.92343963542953L405.4147242498366,383.1348680128576L407.28699981130194,381.2548699773615L403.8451158524331,377.94264295481844L401.5483484277793,378.0102642759448L400.71826602341025,377.2350150652928L405.3311145732878,372.3375485871802L403.97428532310005,371.14261746493867L408.8194016192938,366.11886661383323L410.31118013555533,367.4506544789183L411.0132695296925,366.640845974267L413.3144731539287,368.83666283322964L410.8497978326923,371.18911682243925L412.7898032797748,373.1911218558089L415.20953780968557,375.34367996186484L411.96530742919276,378.7822242398397L404.20526024746505,386.7382546022418L406.0194991505268,388.58963186468463L403.2523693294279,391.35950953897554L406.59578588523436,394.51559000334237L408.6773064246663,396.6698920404888L407.48869655949966,397.9642879575258L404.9895511880168,400.55260538571747L403.57414622968645,400.94074127828935L402.5924179350186,401.8663676654687L405.4841314289588,404.94573787919944L406.8944203529245,406.07702778140083L408.17455293622334,406.6776772495359L408.53788855813764,406.4692737177247L409.0955583738396,406.1506302380585L410.14208134829096,405.55155926547013L411.54766595025285,407.91422578535276L407.9864483043784,409.9120954205282L407.1169029715311,410.38181220763363L409.6721322461599,414.95190082030604L411.937117915586,418.49540729419095L414.0302258855445,420.7064039768302L404.137402669272,427.96739544469165L404.97938223056553,429.53126301575685L405.5514733517557,431.25056966167176L405.7952177420375,433.21992931864224L405.6805834822444,435.466592026758L405.17161816939915,437.59838688507443L404.2723535447949,439.91913685621694L403.7475357071671,441.1414311415865L402.89087494841806,442.39977853471646L401.61538457107963,443.90776197536616L400.8344776157901,451.6266624824493L399.1704776814222,451.62450398592046L398.8061336829851,458.9417717020842L397.7005886955012,463.45002891286276L397.7102762210561,467.727894337615L401.4909693692607,467.81742576730903L401.4795173984312,470.79030181939015L400.1695098067503,470.2358094517258L399.1071395133331,469.91889550426276L398.08619877827005,470.39155605703127L397.3843824787109,471.8594290589099L399.4220650645948,472.6446154922014L396.8307049351497,478.6645256457268L397.22556272337533,478.8710952627589L393.9145143500209,492.7291846491862L393.5635052455327,495.5423316846718L398.6165256744862,496.06355277530383L399.4972304725379,497.2176238662214L398.8860606047165,504.63432663091226L392.82797651203873,504.099614152452L387.88679528171633,503.4482781654224L382.59753774248384,503.74506939784624L376.9895986322954,504.18668711197097L371.5142571947872,504.64632552984403L367.3667903680762,504.5259059232776L366.3283275710928,504.43790405330947L363.20988689083606,504.13325521640945L356.42783100417,502.70958248188253L353.8938277211855,501.6267686355859L347.944057526649,498.354588949529L341.96560017523007,491.39676518324995L341.5232130404256,490.3884709412232L340.081387268634,485.8354659844772L338.21822919286933,479.9073139227112L331.1788114354131,459.7009021351696L325.03671159210353,440.3777006244054L322.2316934297851,434.51497248897795L319.6709010160048,431.16041042859433L314.1783208965353,426.5654031133163L303.27287817046454,418.1206641700119L295.0436484157108,411.9409057095181L293.80364656424354,411.1589338479098L284.23270574719936,405.12521750689484L278.5595823718031,401.89138321590144L271.8860221260402,395.54920297896024L262.6615793060191,386.46594719641143L255.0241439543388,379.1215110695921L243.2603582351585,370.16582602943527L235.43907272576325,364.67160256113857L230.2412606662183,362.02154342009453L224.71361902599165,360.1665175278322L219.61423909839505,358.5549348924542L214.63059520682145,357.2803577145678L209.42246611886367,355.89701138122473L203.76174082735088,354.522480177111L197.89028766292904,354.0544664048939L192.02927485560213,354.1532012523967L180.8422140789844,353.7276404246222L182.28569147980306,353.21410443400964L183.69323593739682,352.6085642623366L185.05917512614542,351.91360011609504L190.95638439602044,348.6698823553743L192.22530562274915,347.97188417823054L192.5156811136403,347.8122462310712L192.8072349097274,347.6546912265476L193.09987016458035,347.49912522238446L193.3934916329672,347.345549827849L193.68819775789598,347.1941545427544L193.9839837334439,347.0446527166059L194.28075911802443,346.8973326119594L194.56863702138799,346.7591469811159L194.85750271513098,346.62304752034834L195.14716090786533,346.4887507915846L195.43780528585194,346.3564446878736L195.72924535952188,346.22613242291845L196.02157637039636,346.0978123942041L196.31479671469424,345.97138905338943L218.75103222096368,336.3130498720566L220.54238986587006,335.5238276188029L221.93461910192855,334.94901604403276L223.3442644887691,334.41855026537087L224.77000348455476,333.9331218180596L226.21022300390177,333.49314036307624L227.6635956819664,333.0990107328398L229.12870049083722,332.75123489368707L230.60401635552262,332.45002972660586L239.22366745935142,330.82560459687375L240.39031084817543,330.61591403884813L241.46631078881182,330.43240664346376L242.54776157940069,330.2843656660989L243.6334280099618,330.1720030477154L244.72226058111846,330.0952408526791L245.81292883003334,330.0542925890768L246.9043848461224,330.04917584726354L247.99539022562385,330.0799113960238L266.03700989455683,330.8872285721591L266.1875577342071,330.8939799136715L267.58196223814593,330.9107852788293L268.97447167053906,330.83653777313884L270.3591877771105,330.67171836359194L271.7303075325326,330.41680632613134L273.0820405909035,330.0730452723801L274.4085981517783,329.6417742749327L275.70439138208894,329.12490245862864L276.9639313950029,328.52462394116446L278.18192448672926,327.84341624873923L282.86997903835436,325.0169199742377Z" fill="rgb(239, 249, 189)" stroke="white"/><path aria-label="properties.RentPerRoom: 904.179499886" role="graphics-symbol" aria-roledescription="geoshape" transform="translate(0,0)" d="M455.6334324503987,258.15836540132295L456.03444873174885,257.5600727702258L459.85700498389633,251.85560831206385L471.1401312699454,234.01356569043128L473.2908951136633,230.61240668507526L488.68244049470377,202.18556730926502L560.2434210633655,235.1072004994494L565.0554721187,237.32035848894157L565.6020885853795,237.59541012707632L566.975385080972,240.67795405664947L566.2323284913073,241.1622382873902L566.2274576180644,241.15562568302266L565.8362110336602,241.40994145616423L565.7560085220321,241.4590391360689L565.6767832792539,241.50965047976933L565.5984369640064,241.5615858937963L563.900794875939,242.64256514637964L563.2218280165689,243.08279495453462L558.3702208939212,246.4622650614474L562.6270770184274,250.858339252125L563.7612556754975,251.99947807221906L566.9537297962888,255.27918435947504L567.0845162771657,255.41280408384046L569.9136200174325,258.3188059463282L569.930091081158,258.33574539463734L570.4418000667429,258.8704094708082L570.2382281227765,259.0687152207247L570.1726888031699,259.1347795660258L569.6487269481659,259.1408830109285L572.3708803741683,261.945564744703L571.8363602665122,262.4674534247606L568.8082861564035,265.39705630019307L568.6345485855563,265.56036874256097L563.995057109918,270.0307245165459L564.9493383502704,271.00842011050554L564.6087766247074,271.3379910059157L564.5618412357144,271.38176738400944L564.259660437172,271.66292121465085L562.2326149242945,273.5884644089965L561.7195652904775,274.20568840461783L561.6915275638166,274.23959934257437L556.6978627056087,280.2491164082312L554.7235379968115,282.65747507463675L553.7828160700083,292.77834931918187L554.0038194431327,293.30726850236533L555.8727920984165,295.58722425438464L556.2609643194592,296.00140208622906L558.7646784494427,298.67269989394117L558.9217106330034,298.8568283720524L559.0755457444684,299.04358950286405L559.2262790368259,299.23298173508374L559.375716783019,299.448393978877L559.5211969714219,299.66654676990584L559.6627180630167,299.8873445421341L559.7177398668791,299.9848081457312L559.772101050934,300.08266479644226L559.825612651679,300.181013143796L559.8866299251895,300.29577579553006L559.9466086468747,300.41112878976855L560.00554727688,300.5269765663543L560.1169766552266,300.52421258040704L560.1435910711007,300.5734846123378L560.1889394378377,300.55554356833454L560.183914931542,300.5393757488928L560.2071438151543,300.5323079150985L560.2309858078588,300.5278109126375L560.2551536133833,300.5257938192226L560.298459625199,300.5289144946146L560.3404693500415,300.54027646634495L560.3794590078469,300.5593341990607L560.4142747889709,300.5854373208713L560.5480036300505,300.7838990652235L560.5395079870432,300.78881613339763L560.7944666507319,301.2378445783979L560.9587389488515,301.43972956290236L558.6423926411153,303.1309229226317L554.5264245595608,306.77925802516984L545.591053463053,315.42199556250125L540.8061940174957,320.68909437174443L539.7899783185567,319.6437116145971L537.8257095352747,321.6180586986593L538.7802168033959,322.6652026979136L534.8581443611474,325.1254019557964L545.3391281315562,335.68128606304526L530.512079834225,348.16901233716635L533.747187800851,351.84928575577214L531.687079782947,353.5209841967444L531.7034671174551,354.52254206949146L530.4944710144337,354.57280537940096L529.8949736072245,354.91593215969624L529.948638951144,356.890888899914L532.1374321216063,356.8390133989742L532.1917512931323,359.13766522548394L530.0109826179178,359.1903655740898L530.1214473031359,363.25755745114293L527.4503250869238,364.2857468256261L524.355467065885,364.34264958824497L522.3616317322085,365.9372861009324L509.12214151761873,366.45085459103575L503.0749675892148,366.64101309207035L503.09717047754384,366.12455231009517L498.5631725559724,366.2893872645218L493.66340516728815,366.34000360628124L491.0019690761401,366.3527292655199L489.5814959998679,364.52554432390025L479.81786879152787,366.77823124441784L479.3574161056604,364.5091960754362L477.26132538541424,363.9681506951456L475.3274568767956,364.02944122516783L456.54065462697326,367.37652621330926L453.8426902643987,371.21324665512657L450.15639114034275,377.00066014332697L448.69175975374674,377.3839641715167L436.84516004487523,372.4807774005458L429.03925232857,364.90240363246994L421.35976510671026,372.46282100566896L419.09795344430313,374.539597483119L417.4112254296997,373.1100904933992L416.51223410284,371.7907987126382L424.66073598945513,363.372642447066L424.5206351368761,360.34045160911046L425.9680357648904,358.6804750870797L427.81204979230097,352.6393676002044L430.5090063560783,351.0772376845125L434.39976101562934,352.28832319623325L435.31695484200463,349.1479836158105L433.0785482118663,345.5126294011134L435.22724119968916,338.1932945420267L439.0729652882728,336.61332956753904L439.5595499029441,334.90612880146364L433.0418162245842,332.9637886303244L432.4258517241833,331.53363195300335L433.0538490698891,329.2169602647191L435.1205031044592,327.9692951149773L436.69631382703665,322.63292114663636L433.07088663381,317.12472189363325L400.31867103221157,291.24851571634645L452.31487861750793,257.73200137127424Z" fill="rgb(72, 182, 194)" stroke="white"/><path aria-label="properties.RentPerRoom: 882.109565038" role="graphics-symbol" aria-roledescription="geoshape" transform="translate(0,0)" d="M488.68244049470377,202.18556730926502L473.2908951136633,230.61240668507526L471.1401312699454,234.01356569043128L459.85700498389633,251.85560831206385L456.03444873174885,257.5600727702258L455.6334324503987,258.15836540132295L452.31487861750793,257.73200137127424L400.31867103221157,291.24851571634645L395.23674108022533,293.21450741786975L384.3398935617006,295.1151046794839L374.416539628779,297.6454712165869L363.0163635510107,301.598875331576L355.3502171124492,304.52218336687656L347.5750189549217,307.33928481617477L341.2913017241008,309.59376339049777L334.3499501739643,310.89078251831234L326.42244782443595,310.914771813259L319.7526079632298,312.37462395144394L312.2627357358724,310.9486952010193L304.1658600322262,309.56538259173976L304.0926960864308,309.55436769657535L304.0191144581913,309.54689636908006L303.9452103977819,309.5429670213489L303.87126965643256,309.54257488943404L303.7972922355257,309.5457199734519L303.72365755225474,309.55230036366265L303.6503687742734,309.56250717380317L303.60448818889563,309.57082325580996L303.558915516609,309.5804723786423L303.51365075773356,309.59145454189274L303.46869549521944,309.60386530170217L303.4241418132806,309.6175119570107L303.3800881275092,309.63258403295185L303.33643760626,309.648987560824L298.7703129232177,312.5450410718913L294.29068102334713,316.18426246516174L287.3036166749225,321.8927557201823L286.91916290715744,322.20140596700367L286.53081559832935,322.50505552475806L286.1385731589762,322.8036088545341L285.7424371707166,323.0971615272574L285.3425933658,323.3854237110936L284.9391385724448,323.6684893856873L284.53197753822315,323.9463601576281L284.1217324984391,324.2220842469251L283.7078732847149,324.49242075911025L283.29059038467676,324.7573665276286L283.1107607930462,324.8692382288282L282.86997903835436,325.0169199742377L278.18192448672926,327.84341624873923L276.9639313950029,328.52462394116446L275.70439138208894,329.12490245862864L274.4085981517783,329.6417742749327L273.0820405909035,330.0730452723801L271.7303075325326,330.41680632613134L270.3591877771105,330.67171836359194L268.97447167053906,330.83653777313884L267.58196223814593,330.9107852788293L266.1875577342071,330.8939799136715L266.03700989455683,330.8872285721591L262.875106706073,321.24375350849004L276.5898593049642,317.6837173765525L277.5114516646863,317.1846618276322L278.2654556271009,316.74862595647573L278.9054321848671,316.33648085867753L279.5279316616361,315.898821009323L280.12214345847315,315.4214895729092L280.6843052773984,314.9074167284998L281.2106230504287,314.3576215226203L281.69917592589627,313.7711800247198L282.14047069968365,313.1501623252989L282.55377925373614,312.5076278252527L282.9450068718652,311.85494771652156L285.5869907033484,307.37658574071247L285.7123105556384,307.12014313187683L285.79640491753526,306.8482353591244L285.8327156519954,306.5675672365469L285.80125599411986,306.27942844713107L285.7262349146986,306.0073106625932L285.59436647355324,305.7543989707483L285.5774598521166,305.7346086819889L285.296653569465,304.09706301632104L287.40622293410706,303.49663444404723L288.1232101570931,300.7305722896708L285.9224829022278,301.1206115207751L283.89345671230694,301.37339769583195L279.15674633035087,301.9132755729952L278.60555893107085,301.9759213438374L284.2641520658508,290.87923270551255L285.18073207955604,289.156738203892L286.74183873436414,289.8141085707466L288.6392701966979,285.6473145237542L285.4018273192487,284.2226443096297L286.1005184666428,283.0342855481431L288.38740316626354,284.13454324915074L290.6378895212911,280.16924695146736L288.7212148983672,279.1583789944416L291.9044207497136,275.0082861924311L291.87890528177377,269.16721787833376L297.75392390590423,268.6428398230346L297.1482083783194,260.0956322206184L297.1792305249037,257.8859843931277L291.94594045159465,254.7107533312519L292.37435131610255,254.1137946957606L294.72671972881653,253.64054070948623L297.3151099387469,252.34508220828138L301.58928284493595,254.74008281878196L302.3113325505037,253.57710526144365L302.88725871177303,252.7387112515862L299.89972185663646,250.93593971128576L297.6422054274735,249.54447742010234L298.34494609820104,248.42386784445262L301.4294597740227,248.3724192546797L302.33047119055846,247.02577215171186L304.0747748992362,244.41373460827162L301.32474652215024,242.6280002570711L301.9410620742201,241.5639815632603L299.51325670685037,240.05879838601686L302.86618192760943,232.77412793267285L304.0351854170658,230.28920408070553L306.16679538667086,228.85030834324425L310.0926023441789,235.3475729241036L312.2181192681601,235.8436742182821L315.14405133279797,235.18790783913573L321.4354778417837,238.32959568256047L326.6129540042966,228.6150178112439L330.1859375711938,220.92118310497608L331.2975753222199,211.89728832565015L327.66402180817386,210.16330017411383L328.0507005969848,209.34331365884282L328.98605688546377,207.76087228790857L330.82424650558096,204.64527859113878L330.7704026942156,199.59747397882165L360.9112303179936,198.86101141065592L365.9836321601106,204.08876207936555L365.98466904614907,204.6728654227336L367.1009372848348,205.73858244047733L366.10584201203164,206.7432863599388L370.71578815682005,211.06836758262943L371.92839868879673,209.70798414963065L374.72975608204433,211.432123177452L373.8986801356514,212.98885235300986L375.06804464236484,213.5765548928175L378.9623492456667,215.76347907906165L383.06383571674087,218.3246090009925L385.81393235705764,219.94924485252704L386.81765604206885,218.11150693759555L388.7052332307503,219.4961225555744L390.97066381486366,220.73779315670254L389.8412497711324,222.63973064738093L392.8903765639552,224.0816356561263L394.6427582972465,224.8365913325688L395.2963954116276,223.20733253884828L393.6677940524969,222.272516529134L396.77242784042755,216.3524737014668L394.93731462695723,215.1447718210402L396.6247279230083,211.8799205942778L399.39239339582855,213.35617050970905L407.14534641676437,214.81136948330095L407.8029006017023,212.77860435505863L407.13555153790367,210.02678578486666L404.74750988518645,202.7701530456543L405.24575405637006,202.30228438822087L405.6161559023021,201.64503568853252L406.46214408960805,201.5095722619444L406.4654720163235,201.5381976995268L409.1732662298964,201.03379560622852L410.3363381911622,190.9417052222998L443.57913091842784,179.4986255429685Z" fill="rgb(91, 191, 192)" stroke="white"/><path aria-label="properties.RentPerRoom: 909.245248402" role="graphics-symbol" aria-roledescription="geoshape" transform="translate(0,0)" d="M560.9587389488515,301.43972956290236L563.5590336494279,300.1511249213363L571.601269460276,296.13989252760075L576.3128214485914,293.7944538705633L579.178626526671,292.3754301847657L579.4930110715504,292.1838515426498L580.8095495859379,291.35961366741685L584.0891852714485,289.28965825150954L583.7583438343427,291.34342161682434L584.283002142678,291.42984673311L584.8692789824854,291.6864692964591L585.3905865030029,292.06228769675363L585.7953525610501,292.61491393722827L588.201649264156,296.99240278440993L591.217159016247,302.4580855463282L590.8651171446836,302.3635114300414L589.8814127927108,302.0983091838425L589.8104654003764,302.1300436586025L585.490101838579,306.18014463060535L582.6687397064306,308.824811318249L579.0171271467043,314.2672380930162L577.522859736273,316.4945057881414L581.93683115155,319.451054183417L584.6845076265672,321.28675512888003L584.1624893262415,321.9375072539551L583.490020639998,322.78281155525474L583.2317346856726,322.77093467704253L583.111857658776,322.89980623387964L583.0705139696802,322.9415751439519L581.313200917255,324.74208602670114L581.1810685293822,324.8789935653331L581.3769427686639,325.0325741590932L579.3075041888878,327.74347168183886L578.707561577241,327.2867569672526L578.216953763651,327.7513831802644L573.1654940224034,332.5312345622806L573.3558850826157,332.75849514757283L575.0702546143802,334.62031415262027L576.5690806861821,336.22574557201006L575.6901225131805,337.6115336868679L577.663518327754,339.1719009032822L577.9298742618485,339.37785863346653L578.1999907102945,339.58662284800084L581.1705676204874,341.8992920174496L581.3452178426451,342.04269810329424L581.9992226124232,342.5387666267925L582.6147349050516,343.02284233714454L582.7218107954759,343.10531271406217L583.5192312665313,343.7517929931055L583.6610068996815,343.86524227884365L583.8735712212874,344.04999335855246L584.7948842643382,344.76443151483545L585.1896435953604,345.0820491926279L586.7590676532345,346.3414938711212L587.921027718272,347.27549869555514L590.5018281908488,349.3479990561609L590.9708848760274,349.7245339018991L591.0489997705517,349.7834835923859L588.9778541700944,352.61650077748345L585.8637840760784,356.89227407361614L585.6074463507466,357.2376251426758L584.8349848788348,358.31387508445187L583.6569555158421,360.1116821914329L582.7949754574802,361.42640306672547L582.7557883021436,361.47769180702744L580.7546528560488,364.5121663986356L579.990229755218,365.672384394682L579.2534176392728,368.4893002017052L579.856894358898,368.6354080463061L580.4462169101607,368.79589048441267L580.8136475746651,368.89602759550326L580.892113877766,368.9176947286469L581.3964148914456,369.0576683655963L582.0730218950266,369.2550640429836L582.4262119877603,369.35829982324503L582.6510541633106,369.4244284713641L582.7100420550996,369.44335280003725L582.7660068660116,369.46978076704545L582.818083744889,369.5032485034899L582.8654078407635,369.54329214285826L582.9054629427555,369.5874675126979L582.9396868806944,369.6363247761037L582.9675896219196,369.6890117044095L582.9886842082269,369.74486716854153L583.0019276042585,369.80419476807583L583.0076638937899,369.8646951818955L583.0057840092632,369.9255100163864L582.996366289226,369.98558670288185L582.6954745634575,371.3570532940794L582.407934385592,372.6700970445527L582.5428069381596,372.70423130656127L581.8770940815666,375.7424504100927L581.7232537499003,376.43019182165153L580.9703980038976,379.78910739539424L580.2767051305054,381.8568395887851L580.2501004262231,381.92034722527023L579.8273893746737,382.82460276421625L579.7002952131224,383.0961704768706L578.2891745618617,386.03937178943306L577.011810692391,388.59152156382333L576.6195374112867,389.37390263885027L575.3185219643929,392.17203813180095L575.1092965389835,392.613995159918L573.632442575763,395.8025947815622L573.092554820767,396.8472115654149L572.8252375188313,397.36694432835793L571.3548723272906,400.2115653944784L570.6548820796233,401.36991692055017L567.2796236670474,406.9165094187483L567.1229564584064,407.18472568743164L566.3579295193485,408.53869715571636L564.1661654677591,411.9762149314629L561.4622567816332,416.14249843230937L557.3397404131756,422.29449557187036L558.0593624660905,422.7998187543126L558.0540810393431,423.0689180459012L558.1037834677554,423.3333978019655L558.2063847886311,423.5821108681848L558.3576189726955,423.80451890442055L558.5509498669926,423.99107607867336L561.569747429312,425.5466103400104L563.578997118464,426.6406168845715L565.6975689817991,428.0760238636285L567.5971997333763,428.81163904548157L567.2859611228414,429.7139289150946L567.1600892606002,429.76470707310364L567.0740489451418,429.9228257708601L566.7002917311547,430.610251110862L565.9029340467387,431.49270851322217L564.2553460959389,433.3513671613764L562.8863433483275,433.15645515022334L561.1102668687672,431.6822582737659L560.1525933311132,431.89637698454317L557.9533502563936,430.48524434509454L556.2736220933584,433.17871362675214L555.4893359146081,432.66766672965605L553.2501273224989,434.9850066387444L555.2245395000937,436.76069844374433L552.7356647367124,439.531217552023L554.2327668558428,440.9479744923301L553.6403006882974,441.716255953419L549.2704029405359,440.23244748584693L543.8928566067261,446.6913630453637L537.3330654315068,440.7673690558295L532.8108318597297,436.9936306225136L526.9129802950556,443.9770496470737L521.5540431116533,439.27098539919825L519.9157894440868,440.9960020466824L517.4526709760976,443.65156392520294L520.4534334556301,446.13387137732934L516.7122152546654,450.38182313781L511.5041788889357,450.0220137521974L509.6055375750948,448.5955989276408L507.8305190663232,447.3861940470524L510.4732888619619,444.27615094621433L508.334509152839,442.53351328737335L510.61874834135233,439.7455092862947L509.0168812424017,438.4129449191969L511.48449154853733,433.9430910490337L512.0722033943312,431.02103497233475L507.56033115422906,428.788509268139L506.0110019990243,432.0902746376232L498.9190628200886,427.4422323499457L493.3203160923731,424.05326354829594L492.1923630685196,424.4509934724192L489.11431211143645,428.9059478244744L482.60580263641896,424.76582896511536L479.3682506125697,426.5776668523904L478.0278862949999,424.11121182044735L482.04326202847005,418.13003232638584L478.4993529615749,415.94310175528517L471.71269353237585,411.4424041773309L463.0682368606431,406.2437933596666L464.6618914870851,403.79072928690584L455.7925902262723,399.173936700623L457.532714995119,396.0819303205353L459.96561935652426,391.76328719279263L461.0788505232922,389.8396536736982L461.8348916733012,388.5322805119213L459.14643354260625,386.99181499233237L457.2979873223885,385.8601898555644L460.02509284160624,381.0202728799777L458.81533321068855,380.6167335958453L458.35287610623345,381.7536873216741L456.8481983616075,382.4090468812501L456.05188104780245,383.63567472447176L455.8083741444134,383.48876349336933L454.7476201435129,385.2652482764097L455.24342644927674,389.6567925219424L457.1453856228982,390.799089554057L458.3891287882725,391.5471629356616L456.55614662363223,394.78779506433057L454.50824987419765,398.4065713346354L451.0601789121065,396.4908177017933L454.44314995033346,390.63976929342607L452.2128393353705,389.3412613829132L447.78691188589437,381.28247806220315L448.69175975374674,377.3839641715167L450.15639114034275,377.00066014332697L453.8426902643987,371.21324665512657L456.54065462697326,367.37652621330926L475.3274568767956,364.02944122516783L477.26132538541424,363.9681506951456L479.3574161056604,364.5091960754362L479.81786879152787,366.77823124441784L489.5814959998679,364.52554432390025L491.0019690761401,366.3527292655199L493.66340516728815,366.34000360628124L498.5631725559724,366.2893872645218L503.09717047754384,366.12455231009517L503.0749675892148,366.64101309207035L509.12214151761873,366.45085459103575L522.3616317322085,365.9372861009324L524.355467065885,364.34264958824497L527.4503250869238,364.2857468256261L530.1214473031359,363.25755745114293L530.0109826179178,359.1903655740898L532.1917512931323,359.13766522548394L532.1374321216063,356.8390133989742L529.948638951144,356.890888899914L529.8949736072245,354.91593215969624L530.4944710144337,354.57280537940096L531.7034671174551,354.52254206949146L531.687079782947,353.5209841967444L533.747187800851,351.84928575577214L530.512079834225,348.16901233716635L545.3391281315562,335.68128606304526L534.8581443611474,325.1254019557964L538.7802168033959,322.6652026979136L537.8257095352747,321.6180586986593L539.7899783185567,319.6437116145971L540.8061940174957,320.68909437174443L545.591053463053,315.42199556250125L554.5264245595608,306.77925802516984L558.6423926411153,303.1309229226317Z" fill="rgb(68, 179, 194)" stroke="white"/><path aria-label="properties.RentPerRoom: 999.223665224" role="graphics-symbol" aria-roledescription="geoshape" transform="translate(0,0)" d="M193.3906900649672,197.43697581830202L175.11878356362286,191.7228243643185L175.0428891957563,191.7148332160432L174.96785444798297,191.70128255762393L174.8939683341814,191.68235871201614L174.82161192783678,191.65805523935705L174.7512631755235,191.6284596642945L174.6832143016727,191.59394946222892L174.61784477475157,191.55442261503777L174.5555420881501,191.51025498763192L174.49659686187806,191.46172847610433L170.8098150416772,189.72143425687682L170.6796722623767,189.6609182175016L160.71016011432948,188.2721481496119L149.81374670717923,183.67355345305987L134.88673690323049,177.8155359866796L124.34064179134293,173.6703023155569L114.78047974445508,169.73505552724237L111.70962190750288,168.43127631937386L113.3821875389549,165.26996283145854L115.84414530916547,163.3045664074598L119.71881503822806,159.8236713547376L126.28473876835778,155.01418668660335L134.4029651672463,149.06826599990018L135.24708284081862,148.5266519258148L136.05025339099666,148.6371282460168L140.2042647087801,145.45473120448878L143.91198957285815,142.59351828461513L147.1797062360638,140.20071692502825L149.40855138446932,138.64702401257819L151.51176401604607,137.2273132095579L154.2924573129494,135.3795503884321L156.2483034123652,134.00231092766626L158.19618841072224,132.5534999408992L160.6473158054796,130.51054397848202L160.75201354467572,130.28121224732604L161.71714435935428,129.4231952150585L163.44780200710375,130.94237550307298L164.3785345987344,129.92584498558426L164.28719936604466,128.94859340699622L164.2868024313575,128.90796430018963L164.28888436100533,128.86738887254614L164.2934483689096,128.82705829729093L164.30039917657996,128.78697418631054L164.3098368827341,128.7474216882256L164.3215741427848,128.70859519887017L164.33561095723417,128.67049471870996L164.3517455227411,128.63245436555007L164.37018606911442,128.5955223684432L164.3909342035331,128.55979431554442L164.41380258083518,128.52546460251324L164.43879120123165,128.49253323004814L164.46571432625205,128.46129018242937L164.4944766761837,128.4317370702629L170.02911261487316,123.3709869706654L169.70228835548187,123.21683583763661L169.70122476482356,123.21025640924927L170.0489856923523,122.89162169123301L179.24071254035516,114.52093746169703L179.6456121994779,114.1477939239121L179.71242710846855,114.09120816894574L181.12892986442603,112.3601547483704L182.3701690464659,111.11779134988319L186.24446132752928,107.24014514748706L193.50272841966944,99.99091457814211L195.97469173646823,96.72391874075402L195.1028506595103,95.61863379913848L192.88802427494375,92.92987796821399L190.09696506366163,89.3171092136181L189.89997332880012,88.99417665117653L189.71296692417673,88.64717044611461L189.57733456591086,88.29451631364645L189.50063265779318,87.92642906104447L189.53128424146416,87.54314348456683L189.60784786145086,87.16950568259927L189.74952825876971,86.81398877635365L190.28213401982066,85.96650613396196L191.15709888735,84.57260711950948L194.48292876174673,80.15016002539778L195.16140410643857,79.63986104342621L195.7535821774436,79.83842703560367L196.28709306009114,80.26737894746475L200.6849529902829,83.78344587259926L203.1048239935335,85.76218296401203L204.5025026749936,86.75336229248205L206.10566816900973,87.53932327689836L206.76164464139583,87.87164784496417L208.82806509725197,88.99050764343701L213.86439954560046,82.07697580062086L216.43516185432236,83.85338704509195L218.53059049587318,80.98248933441937L218.84628208944923,80.54975121142343L220.21035244033556,78.7092321855016L219.80502139888267,78.3922738180845L220.994830404401,75.81953740678728L223.10487159685,73.33526132069528L225.9704305038831,75.9379346803762L230.47513195948704,70.378084468015L231.9027879961286,68.62016430444783L237.11708967191953,73.28525419498328L243.9162075031345,66.63511042267783L244.7140596107929,65.80921023193514L255.43887466297747,76.72681848489447L242.91863534726872,89.20779967930866L240.26385457769356,86.38756737631047L239.06210928827204,85.76803663361352L237.84522079193994,86.01221603440354L236.75188605250878,86.92079803888919L245.8370409658164,97.95390117389616L249.47538926613925,94.94113201607252L254.6434315599181,100.50842745706905L261.53647514079785,107.85111785167828L264.94342135742045,107.54260165203596L269.9662258856624,102.72643892030464L270.44795319472905,101.60443170851795L270.1779847217913,100.38599450152833L274.38757834742864,96.69833452318562L278.59400315902167,101.07999067864148L282.99421659469226,105.59896281774854L282.3517911214876,106.37740740837762L280.3158971900484,108.82327097089728L279.57690783211,109.6978931731428L277.41967617200135,112.25076811225154L277.77368849149934,112.57998400187353L275.54858960893034,115.60738114634296L275.86791049226304,115.93095904676011L277.99780562271917,118.09115443890914L280.43886684718746,120.56722310214536L281.7135712731251,121.85689211328281L282.3348294363386,122.48540640255669L279.92450196483696,125.41715696360916L279.58473268307716,125.8302469739574L277.2827739971908,128.63444922922645L275.9172470249832,130.29332006821642L276.8674801280722,131.55185811885167L276.2055039533443,132.25841469469015L274.7828575735475,133.7770134046441L272.71533435643505,135.9863928174018L272.25911501017254,135.56233473372413L270.30820460976975,137.6536927371635L271.4064498273583,138.67165613960242L269.73898737312265,140.45919064007467L269.6452528964801,140.55933447362622L268.95587156989495,140.1380363952485L267.0604939287514,138.3059009220451L266.6170480761648,137.82484168797964L263.8840757909129,134.70687895722222L263.6642278099753,134.45603930501966L261.20155116476235,132.18822959269164L260.7623072697679,131.94880882534198L259.70223477089894,133.91371762461495L258.95181027457147,134.63573250890477L258.7865159389621,135.66432688967325L258.696815709387,135.90944962960202L258.6005537331512,135.98936860554386L258.4832411243624,136.05281246238155L257.97443544535054,136.28344326792285L258.3421056999505,137.07841826003278L258.40834769212233,137.2276107763755L259.0974120449682,138.72864909865893L256.01040977343655,142.36952757812105L257.3327836771714,143.48801232071128L251.00619879235455,150.0477503364673L253.99996265173831,153.78657997853588L250.68418403938995,156.51921621325891L247.09648064532666,153.3975025076652L245.48250452065986,151.42250833340222L241.24301792972983,155.0541354699526L235.8091272203892,160.26520054257708L230.097910007069,167.01160551502835L225.4462395266164,172.5412776931189L222.70700060843956,169.6110949544818L218.4611040136806,174.49628594814567L214.16302319194074,177.90906766691478L205.5478792947033,178.63730835320894L197.79149221087573,186.0856004920788L185.18790434105176,175.14012668293435L178.58420018241304,183.40294486877974L193.7103667740521,196.7124631476472Z" fill="rgb(33, 124, 182)" stroke="white"/><path aria-label="properties.RentPerRoom: 1117.33731744" role="graphics-symbol" aria-roledescription="geoshape" transform="translate(0,0)" d="M400.31867103221157,291.24851571634645L433.07088663381,317.12472189363325L436.69631382703665,322.63292114663636L435.1205031044592,327.9692951149773L433.0538490698891,329.2169602647191L432.4258517241833,331.53363195300335L433.0418162245842,332.9637886303244L439.5595499029441,334.90612880146364L439.0729652882728,336.61332956753904L435.22724119968916,338.1932945420267L433.0785482118663,345.5126294011134L435.31695484200463,349.1479836158105L434.39976101562934,352.28832319623325L430.5090063560783,351.0772376845125L427.81204979230097,352.6393676002044L425.9680357648904,358.6804750870797L424.5206351368761,360.34045160911046L424.66073598945513,363.372642447066L416.51223410284,371.7907987126382L413.3144731539287,368.83666283322964L411.0132695296925,366.640845974267L410.31118013555533,367.4506544789183L408.8194016192938,366.11886661383323L403.97428532310005,371.14261746493867L405.3311145732878,372.3375485871802L400.71826602341025,377.2350150652928L401.5483484277793,378.0102642759448L403.8451158524331,377.94264295481844L407.28699981130194,381.2548699773615L405.4147242498366,383.1348680128576L400.07442052447004,377.92343963542953L400.06959434295277,377.9196008351282L398.6069314342749,379.45473811007105L391.3687524760462,380.3661788570462L389.3361811246068,380.0055278062937L388.083572196796,379.26996687665815L385.12955507833976,376.5519783369964L384.5663390137852,375.37982195499353L380.4068278024424,379.724601654103L368.40664161130553,368.9715169905685L360.4210894221542,361.7713559328113L364.542069786301,356.10541008476866L359.3580700507082,352.47990523983026L358.47748647582193,352.4038961553597L357.5725107481703,352.6920567289926L356.82846226755646,353.4959562680451L354.356846915347,356.244325311447L352.3472166016363,354.3690058051725L350.5046862954914,356.3721660961746L350.1147192682838,358.38113758695545L349.83922988957784,369.48918128124205L347.0114807654463,370.23647182789864L347.2314884776206,370.8396164405276L347.1617347122592,377.5165417805547L347.55295620430115,377.5493288843427L347.4126630584142,379.9082756275893L346.77994753316307,381.86261212517275L346.6372335937849,382.09894026676193L345.62448559085897,383.79150126868626L345.6030949363558,383.79415006842464L343.4574844898598,383.92209340340924L342.62628035368834,384.93662162614055L339.41995118991326,384.89936680317624L339.61759042307676,379.4368419517996L339.53728958520514,377.6825143088354L339.2040040531574,376.1903342275182L338.2973347188381,374.2433826685883L335.7390244627022,368.9662760438514L333.06514634883933,362.86652987869456L335.2041922606877,362.1805918389L335.20826554497035,362.1791861000238L330.98935049408465,353.6320234918967L329.45281590012746,353.0183564707404L329.2524678349946,352.88587381492835L329.1388974290603,352.8160799964098L329.12631012480415,352.8095989555586L329.1129924522538,352.80504158948315L329.09961268884217,352.80249236157397L329.0852310371338,352.8027315120562L329.0719428372686,352.8057241976494L329.058783032895,352.8107218541554L329.04746441403404,352.8176004233537L329.03797277286503,352.8254999528872L329.0287000338867,352.8351162186591L329.0222066996357,352.8457376069273L329.01660370259196,352.8583512954647L329.0140468941099,352.8708187524462L327.65828010305995,352.5828374031116L325.136252165139,353.26457647944335L321.95142314185796,351.8994984976598L322.6126191748335,350.403041749727L323.01336974652804,350.6018636000226L323.53548938733,348.6393908900791L322.2488356284157,347.0121874710894L318.9838949154582,347.18819794332376L317.39603005008394,348.06345488724764L316.6562361572287,347.2269499224494L314.1455568291203,347.20768551545916L314.1057944069107,346.69318518892396L310.2975372108922,346.846658135124L303.9840272562287,347.37749228521716L304.13814820179687,349.37736197706545L291.07640314265154,349.68722491979133L290.9891800213154,348.97194811486406L290.2009256866877,339.18645137076965L293.09072841805755,338.74050532572437L292.8180981569749,336.2036081106053L292.7851490896792,335.9977067838772L292.27582593679836,331.30464250210207L292.1555872813333,330.42549603705993L284.145538860168,331.20051229238743L283.1107607930462,324.8692382288282L283.29059038467676,324.7573665276286L283.7078732847149,324.49242075911025L284.1217324984391,324.2220842469251L284.53197753822315,323.9463601576281L284.9391385724448,323.6684893856873L285.3425933658,323.3854237110936L285.7424371707166,323.0971615272574L286.1385731589762,322.8036088545341L286.53081559832935,322.50505552475806L286.91916290715744,322.20140596700367L287.3036166749225,321.8927557201823L294.29068102334713,316.18426246516174L298.7703129232177,312.5450410718913L303.33643760626,309.648987560824L303.3800881275092,309.63258403295185L303.4241418132806,309.6175119570107L303.46869549521944,309.60386530170217L303.51365075773356,309.59145454189274L303.558915516609,309.5804723786423L303.60448818889563,309.57082325580996L303.6503687742734,309.56250717380317L303.72365755225474,309.55230036366265L303.7972922355257,309.5457199734519L303.87126965643256,309.54257488943404L303.9452103977819,309.5429670213489L304.0191144581913,309.54689636908006L304.0926960864308,309.55436769657535L304.1658600322262,309.56538259173976L312.2627357358724,310.9486952010193L319.7526079632298,312.37462395144394L326.42244782443595,310.914771813259L334.3499501739643,310.89078251831234L341.2913017241008,309.59376339049777L347.5750189549217,307.33928481617477L355.3502171124492,304.52218336687656L363.0163635510107,301.598875331576L374.416539628779,297.6454712165869L384.3398935617006,295.1151046794839L395.23674108022533,293.21450741786975Z" fill="rgb(28, 49, 133)" stroke="white"/></g><g class="mark-text role-mark layer_1_marks" role="graphics-object" aria-roledescription="text mark container"><text aria-label="properties.y: 46.220954585; properties.x: 6.14317016277; properties.ZipCode: 1202" role="graphics-symbol" aria-roledescription="text mark" text-anchor="middle" transform="translate(350.9647784081899,144.2871060547186)" font-family="sans-serif" font-size="11px" font-weight="bold" fill="black">1202</text><text aria-label="properties.y: 46.2078520415; properties.x: 6.1220963097; properties.ZipCode: 1203" role="graphics-symbol" aria-roledescription="text mark" text-anchor="middle" transform="translate(196.0143287032406,283.5137777663185)" font-family="sans-serif" font-size="11px" font-weight="bold" fill="black">1203</text><text aria-label="properties.y: 46.189422389; properties.x: 6.15735669659; properties.ZipCode: 1206" role="graphics-symbol" aria-roledescription="text mark" text-anchor="middle" transform="translate(455.2745972533521,479.28972548572347)" font-family="sans-serif" font-size="11px" font-weight="bold" fill="black">1206</text><text aria-label="properties.y: 46.1960789946; properties.x: 6.14032843685; properties.ZipCode: 1205" role="graphics-symbol" aria-roledescription="text mark" text-anchor="middle" transform="translate(330.0703217684204,408.5849920991459)" font-family="sans-serif" font-size="11px" font-weight="bold" fill="black">1205</text><text aria-label="properties.y: 46.2066125904; properties.x: 6.16235847963; properties.ZipCode: 1207" role="graphics-symbol" aria-roledescription="text mark" text-anchor="middle" transform="translate(492.0513807373718,296.68237541161943)" font-family="sans-serif" font-size="11px" font-weight="bold" fill="black">1207</text><text aria-label="properties.y: 46.2107418107; properties.x: 6.14690993824; properties.ZipCode: 1201" role="graphics-symbol" aria-roledescription="text mark" text-anchor="middle" transform="translate(378.4623551587865,252.8101561436779)" font-family="sans-serif" font-size="11px" font-weight="bold" fill="black">1201</text><text aria-label="properties.y: 46.1984455937; properties.x: 6.16757285189; properties.ZipCode: 1208" role="graphics-symbol" aria-roledescription="text mark" text-anchor="middle" transform="translate(530.3912763636181,383.4455280909315)" font-family="sans-serif" font-size="11px" font-weight="bold" fill="black">1208</text><text aria-label="properties.y: 46.2214741779; properties.x: 6.12319103079; properties.ZipCode: 1209" role="graphics-symbol" aria-roledescription="text mark" text-anchor="middle" transform="translate(204.0635223770878,138.76526472723344)" font-family="sans-serif" font-size="11px" font-weight="bold" fill="black">1209</text><text aria-label="properties.y: 46.2027082958; properties.x: 6.14568982251; properties.ZipCode: 1204" role="graphics-symbol" aria-roledescription="text mark" text-anchor="middle" transform="translate(369.49116793333815,338.16176669159904)" font-family="sans-serif" font-size="11px" font-weight="bold" fill="black">1204</text></g><g class="mark-group role-legend" role="graphics-symbol" aria-roledescription="legend" aria-label="Gradient legend titled 'properties.RentPerRoom' for fill color with values from 699 to 1,117"><g transform="translate(718,0)"><path class="background" aria-hidden="true" d="M0,0h131v221h-131Z" pointer-events="none"/><g><g class="mark-group role-legend-entry"><g transform="translate(0,16)"><path class="background" aria-hidden="true" d="M0,0h0v0h0Z" pointer-events="none"/><g><g class="mark-rect role-legend-gradient" pointer-events="none"><path d="M0,0h16v200h-16Z" fill="url(#gradient_1)" stroke="#ddd" stroke-width="0" opacity="1"/></g><g class="mark-text role-legend-label" pointer-events="none"><text text-anchor="start" transform="translate(18,202.39563124172082)" font-family="sans-serif" font-size="10px" fill="#000" opacity="1">700</text><text text-anchor="start" transform="translate(18,154.6175814706848)" font-family="sans-serif" font-size="10px" fill="#000" opacity="1">800</text><text text-anchor="start" transform="translate(18,106.83953169964877)" font-family="sans-serif" font-size="10px" fill="#000" opacity="1">900</text><text text-anchor="start" transform="translate(18,59.06148192861276)" font-family="sans-serif" font-size="10px" fill="#000" opacity="1">1,000</text><text text-anchor="start" transform="translate(18,11.283432157576742)" font-family="sans-serif" font-size="10px" fill="#000" opacity="1">1,100</text></g></g><path class="foreground" aria-hidden="true" d="" pointer-events="none" display="none"/></g></g><g class="mark-text role-legend-title" pointer-events="none"><text text-anchor="start" transform="translate(0,9)" font-family="sans-serif" font-size="11px" font-weight="bold" fill="#000" opacity="1">properties.RentPerRoom</text></g></g><path class="foreground" aria-hidden="true" d="" pointer-events="none" display="none"/></g></g></g><path class="foreground" aria-hidden="true" d="" display="none"/></g></g></g><defs><linearGradient id="gradient_1" x1="0" x2="0" y1="1" y2="0"><stop offset="0" stop-color="rgb(239, 249, 189)"/><stop offset="0.0030218437913959225" stop-color="rgb(238, 249, 189)"/><stop offset="0.05079989356243194" stop-color="rgb(229, 245, 184)"/><stop offset="0.09857794333346796" stop-color="rgb(219, 241, 180)"/><stop offset="0.14635599310450398" stop-color="rgb(205, 235, 180)"/><stop offset="0.19413404287554" stop-color="rgb(191, 230, 181)"/><stop offset="0.241912092646576" stop-color="rgb(172, 222, 183)"/><stop offset="0.28969014241761204" stop-color="rgb(152, 215, 185)"/><stop offset="0.33746819218864804" stop-color="rgb(132, 207, 187)"/><stop offset="0.3852462419596841" stop-color="rgb(111, 199, 189)"/><stop offset="0.4330242917307201" stop-color="rgb(93, 191, 191)"/><stop offset="0.4808023415017561" stop-color="rgb(76, 183, 193)"/><stop offset="0.5285803912727921" stop-color="rgb(62, 174, 193)"/><stop offset="0.5763584410438282" stop-color="rgb(50, 163, 192)"/><stop offset="0.6241364908148642" stop-color="rgb(41, 151, 190)"/><stop offset="0.6719145405859002" stop-color="rgb(36, 138, 186)"/><stop offset="0.7196925903569362" stop-color="rgb(33, 124, 181)"/><stop offset="0.7674706401279723" stop-color="rgb(33, 109, 175)"/><stop offset="0.8152486898990082" stop-color="rgb(33, 95, 168)"/><stop offset="0.8630267396700443" stop-color="rgb(34, 81, 161)"/><stop offset="0.9108047894410803" stop-color="rgb(34, 69, 154)"/><stop offset="0.9585828392121163" stop-color="rgb(31, 58, 143)"/><stop offset="1" stop-color="rgb(28, 49, 133)"/></linearGradient></defs></svg>